<svg width="250" height="60" viewBox="0 0 250 60" fill="none" xmlns="http://www.w3.org/2000/svg">
<path d="M33.5585 0L0 59.5423H34.2297L25.5044 44.6807C22.7193 51.0265 20.19 53.6301 13.4234 51.5842L33.7502 15.341L54.8442 51.2965C52.7252 51.6798 51.1614 52.0039 49.6666 51.7759C48.064 51.5316 46.555 50.661 44.9684 48.8036C40.764 41.1502 38.2624 36.8945 33.6544 29.3397C32.8726 31.8269 31.7968 33.3227 30.7779 34.9967C29.759 36.6707 30.3171 37.9329 30.7779 39.1196L41.5166 57.3371C42.3033 58.6255 42.5713 59.1588 43.5301 59.4464C44.489 59.7341 68.7469 59.5423 68.7469 59.5423L33.5585 0Z" fill="black"/>
<path d="M115.656 35.2632C115.656 34.9011 115.944 34.6046 116.306 34.5937L121.563 34.4363C122.148 34.4363 122.656 34.3597 123.084 34.2063C123.527 34.053 123.892 33.8526 124.177 33.6049C124.478 33.3454 124.699 33.0565 124.842 32.7381C124.999 32.4197 125.078 32.0954 125.078 31.7652C125.078 31.4232 124.999 31.093 124.842 30.7745C124.699 30.4561 124.478 30.1731 124.177 29.9254C123.892 29.666 123.527 29.4596 123.084 29.3063C122.656 29.153 122.148 29.0763 121.563 29.0763H115.896C115.661 29.0763 115.471 28.8863 115.471 28.6518C115.471 28.4173 115.661 28.2272 115.896 28.2272H121.563C122.334 28.2272 123.006 28.3275 123.577 28.528C124.163 28.7284 124.649 28.9938 125.035 29.324C125.421 29.6542 125.706 30.0316 125.892 30.4561C126.092 30.8807 126.192 31.3111 126.192 31.7475C126.192 32.1367 126.114 32.5199 125.956 32.8973C125.799 33.2747 125.571 33.6226 125.271 33.941C124.97 34.2476 124.592 34.513 124.135 34.737C123.677 34.9611 123.149 35.1203 122.549 35.2147L127.049 39.8349C127.356 40.1506 127.133 40.6808 126.692 40.6808C126.556 40.6808 126.426 40.6254 126.333 40.5276L121.284 35.2677H116.805L116.716 40.1605C116.71 40.4494 116.475 40.6808 116.186 40.6808C115.893 40.6808 115.656 40.4435 115.656 40.1509V35.2632Z" fill="black"/>
<path d="M152.411 28.7909C152.411 28.421 152.71 28.1211 153.08 28.1211H157.805C158.605 28.1211 159.298 28.2154 159.884 28.4041C160.484 28.5928 160.977 28.8405 161.363 29.1471C161.763 29.4419 162.063 29.7839 162.263 30.1731C162.463 30.5623 162.563 30.9632 162.563 31.376C162.563 31.8713 162.421 32.3489 162.135 32.8089C161.863 33.2688 161.427 33.6521 160.827 33.9587C161.356 34.0766 161.813 34.2476 162.199 34.4717C162.599 34.684 162.928 34.9316 163.185 35.2147C163.442 35.4977 163.635 35.8043 163.764 36.1345C163.892 36.4647 163.957 36.8008 163.957 37.1428C163.957 37.5674 163.857 37.9801 163.656 38.3811C163.456 38.7821 163.156 39.1418 162.756 39.4602C162.371 39.7668 161.878 40.0204 161.277 40.2208C160.692 40.4095 159.999 40.5039 159.198 40.5039H153.08C152.71 40.5039 152.411 40.204 152.411 39.8341V28.7909ZM153.454 33.7995H157.805C158.405 33.7995 158.934 33.7346 159.391 33.6049C159.849 33.4634 160.227 33.2806 160.527 33.0565C160.842 32.8207 161.07 32.5612 161.213 32.2782C161.37 31.9833 161.449 31.6826 161.449 31.376C161.449 31.0694 161.37 30.7745 161.213 30.4915C161.07 30.2085 160.842 29.9549 160.527 29.7309C160.227 29.495 159.849 29.3122 159.391 29.1825C158.934 29.041 158.405 28.9702 157.805 28.9702H153.454V33.7995ZM153.454 39.6548H159.198C159.813 39.6548 160.349 39.584 160.806 39.4425C161.263 39.301 161.642 39.1123 161.942 38.8764C162.242 38.6406 162.463 38.3752 162.606 38.0804C162.763 37.7856 162.842 37.4789 162.842 37.1605C162.842 36.8539 162.763 36.5532 162.606 36.2583C162.449 35.9517 162.213 35.6864 161.899 35.4623C161.599 35.2264 161.22 35.0378 160.763 34.8962C160.32 34.7429 159.799 34.6604 159.198 34.6486H153.454V39.6548Z" fill="black"/>
<path d="M179.351 28.8198C179.351 29.0494 179.164 29.2355 178.935 29.2355H169.821C169.592 29.2355 169.406 29.0494 169.406 28.8198C169.406 28.5902 169.592 28.4041 169.821 28.4041H178.935C179.164 28.4041 179.351 28.5902 179.351 28.8198ZM179.543 34.5513C179.543 34.7711 179.365 34.9493 179.145 34.9493H169.997C169.777 34.9493 169.599 34.7711 169.599 34.5513C169.599 34.3315 169.777 34.1533 169.997 34.1533H179.145C179.365 34.1533 179.543 34.3315 179.543 34.5513ZM179.522 40.2739C179.522 40.4986 179.34 40.6808 179.115 40.6808H170.005C169.781 40.6808 169.599 40.4986 169.599 40.2739C169.599 40.0492 169.781 39.867 170.005 39.867H179.115C179.34 39.867 179.522 40.0492 179.522 40.2739Z" fill="black"/>
<path d="M194.537 39.8494C194.767 39.8494 194.953 40.0355 194.953 40.2651C194.953 40.4946 194.767 40.6808 194.537 40.6808H185.523V28.8231C185.523 28.5331 185.758 28.298 186.048 28.298C186.338 28.298 186.573 28.5331 186.573 28.8231V39.8494H194.537Z" fill="black"/>
<path d="M209.084 39.8494C209.314 39.8494 209.5 40.0355 209.5 40.2651C209.5 40.4946 209.314 40.6808 209.084 40.6808H200.069V28.8231C200.069 28.5331 200.304 28.298 200.595 28.298C200.885 28.298 201.12 28.5331 201.12 28.8231V39.8494H209.084Z" fill="black"/>
<path d="M214.409 28.83C214.405 28.5373 214.641 28.298 214.934 28.298C215.221 28.298 215.455 28.5289 215.459 28.8161L215.55 35.763C215.55 36.4706 215.693 37.0898 215.979 37.6205C216.279 38.1393 216.672 38.5757 217.158 38.9295C217.644 39.2833 218.187 39.5486 218.787 39.7255C219.401 39.9024 220.03 39.9909 220.673 39.9909C221.316 39.9909 221.944 39.9024 222.559 39.7255C223.173 39.5486 223.723 39.2833 224.209 38.9295C224.695 38.5757 225.081 38.1393 225.367 37.6205C225.667 37.0898 225.817 36.4706 225.817 35.763L225.725 28.8191C225.721 28.5324 225.953 28.298 226.24 28.298C226.521 28.298 226.75 28.5242 226.754 28.8056L226.845 35.763C226.845 36.6239 226.667 37.3787 226.31 38.0273C225.967 38.6641 225.502 39.2007 224.917 39.6371C224.345 40.0616 223.688 40.38 222.945 40.5923C222.202 40.8046 221.444 40.9107 220.673 40.9107C219.916 40.9107 219.165 40.7987 218.422 40.5746C217.694 40.3506 217.036 40.0262 216.451 39.6017C215.879 39.1654 215.415 38.6288 215.057 37.9919C214.7 37.3433 214.514 36.6003 214.5 35.763L214.409 28.83Z" fill="black"/>
<path d="M234.311 28.6908C234.361 28.4615 234.564 28.298 234.799 28.298C234.939 28.298 235.072 28.3567 235.167 28.4598L240.505 34.2804C240.682 34.473 240.986 34.4734 241.163 34.2812L246.529 28.459C246.624 28.3564 246.757 28.298 246.897 28.298C247.132 28.298 247.335 28.4617 247.385 28.6913L249.867 40.0725C249.936 40.3851 249.697 40.6808 249.377 40.6808C249.141 40.6808 248.936 40.515 248.887 40.2834L246.755 30.2262L241.257 36.0882C241.151 36.2015 241.003 36.2657 240.847 36.2657C240.689 36.2657 240.537 36.1985 240.431 36.0806L235.138 30.2262L232.815 40.2893C232.763 40.5185 232.559 40.6808 232.323 40.6808C232.001 40.6808 231.761 40.383 231.83 40.0681L234.311 28.6908Z" fill="black"/>
<path d="M88.5531 28.1211H83.4234C83.0535 28.1211 82.7537 28.421 82.7537 28.7909V32.9274C82.7537 33.2446 83.0108 33.5017 83.3279 33.5017C83.6451 33.5017 83.9022 33.2446 83.9022 32.9274V28.9702H88.5531C89.1533 28.9702 89.6748 29.0586 90.1177 29.2355C90.5607 29.4006 90.925 29.6247 91.2108 29.9078C91.5109 30.1908 91.7324 30.5092 91.8752 30.863C92.0324 31.2168 92.111 31.5824 92.111 31.9598C92.111 32.3371 92.0324 32.7086 91.8752 33.0742C91.7324 33.428 91.5109 33.7464 91.2108 34.0294C90.925 34.3125 90.5607 34.5424 90.1177 34.7193C89.6748 34.8844 89.1533 34.967 88.5531 34.967H83.9022H83.2002C82.9536 34.967 82.7537 35.1669 82.7537 35.4135V40.1504C82.7537 40.4433 82.9911 40.6808 83.2841 40.6808C83.5728 40.6808 83.8085 40.4498 83.8143 40.1611L83.9022 35.7984H88.5531C89.339 35.7984 90.0249 35.6923 90.6107 35.48C91.1965 35.2559 91.6823 34.967 92.0681 34.6132C92.4682 34.2476 92.7611 33.8349 92.9469 33.3749C93.1469 32.915 93.2469 32.4433 93.2469 31.9598C93.2469 31.4762 93.1469 31.0104 92.9469 30.5623C92.7611 30.1023 92.4682 29.6896 92.0681 29.324C91.6823 28.9584 91.1965 28.6695 90.6107 28.4572C90.0249 28.2331 89.339 28.1211 88.5531 28.1211Z" fill="black"/>
<path d="M102.638 28.3439C102.717 28.206 102.865 28.1211 103.024 28.1211C103.183 28.1211 103.33 28.206 103.409 28.3439L110.107 39.9561C110.293 40.2782 110.06 40.6808 109.689 40.6808C109.505 40.6808 109.338 40.577 109.256 40.4128L108.052 37.9919H100.347C100.125 37.9919 99.9446 37.8117 99.9446 37.5893C99.9446 37.3671 100.125 37.1869 100.347 37.1866L107.559 37.1782L103.024 29.6778L98.6854 37.1782L98.1924 37.9919L96.7995 40.4329C96.7121 40.5862 96.5492 40.6808 96.3727 40.6808C95.9946 40.6808 95.7582 40.2715 95.9471 39.9439L102.638 28.3439Z" fill="black"/>
<path d="M139.266 28.3439C139.346 28.206 139.493 28.1211 139.652 28.1211C139.811 28.1211 139.958 28.206 140.038 28.3439L146.736 39.9561C146.921 40.2782 146.689 40.6808 146.317 40.6808C146.134 40.6808 145.966 40.577 145.884 40.4128L144.68 37.9919H136.962C136.739 37.9919 136.559 37.8117 136.559 37.5893C136.559 37.3671 136.739 37.1869 136.961 37.1866L144.187 37.1782L139.75 29.5009L135.314 37.1782L134.821 37.9919L133.428 40.4329C133.341 40.5862 133.178 40.6808 133.001 40.6808C132.623 40.6808 132.387 40.2715 132.576 39.9439L139.266 28.3439Z" fill="black"/>
<path d="M90.7006 52.7065H91.226L93.8532 59.0295H93.1942L92.3749 57.0525H89.5339L88.7235 59.0295H88.0556L90.7006 52.7065ZM92.2324 56.5627L90.9588 53.4368L89.6675 56.5627H92.2324ZM98.0668 58.5575C98.3933 58.5575 98.6664 58.5041 98.8861 58.3972C99.1058 58.2844 99.2779 58.136 99.4026 57.952C99.5273 57.762 99.6164 57.5512 99.6698 57.3197C99.7232 57.0881 99.7499 56.8536 99.7499 56.6161V54.1492H100.302V56.6161C100.302 56.9426 100.261 57.2543 100.177 57.5512C100.1 57.8421 99.9726 58.1034 99.7945 58.3349C99.6223 58.5605 99.3937 58.7386 99.1087 58.8692C98.8297 58.9999 98.4853 59.0652 98.0757 59.0652C97.6601 59.0652 97.3068 58.9969 97.0159 58.8603C96.7309 58.7238 96.5023 58.5397 96.3302 58.3082C96.158 58.0766 96.0333 57.8154 95.9561 57.5245C95.8789 57.2276 95.8403 56.9248 95.8403 56.6161V54.1492H96.3925V56.6161C96.3925 56.8595 96.4192 57.1 96.4726 57.3375C96.532 57.569 96.624 57.7768 96.7487 57.9609C96.8793 58.1449 97.0515 58.2904 97.2653 58.3972C97.479 58.5041 97.7462 58.5575 98.0668 58.5575ZM106.842 54.6479H104.963V59.0295H104.411V54.6479H102.514V54.1492H106.842V54.6479ZM111.097 59.0652C110.722 59.0652 110.381 58.9969 110.072 58.8603C109.77 58.7178 109.505 58.5308 109.28 58.2993C109.06 58.0618 108.891 57.7976 108.772 57.5067C108.653 57.2098 108.594 56.9041 108.594 56.5894C108.594 56.2628 108.656 55.9541 108.781 55.6632C108.906 55.3663 109.081 55.1021 109.306 54.8706C109.532 54.639 109.796 54.458 110.099 54.3273C110.408 54.1908 110.743 54.1225 111.105 54.1225C111.474 54.1225 111.809 54.1938 112.112 54.3362C112.421 54.4787 112.685 54.6687 112.904 54.9062C113.124 55.1437 113.293 55.4109 113.412 55.7077C113.531 55.9986 113.59 56.2955 113.59 56.5983C113.59 56.9248 113.528 57.2365 113.403 57.5334C113.278 57.8302 113.103 58.0944 112.878 58.326C112.658 58.5516 112.394 58.7327 112.085 58.8692C111.782 58.9999 111.453 59.0652 111.097 59.0652ZM109.155 56.5894C109.155 56.8447 109.2 57.0911 109.289 57.3286C109.384 57.5601 109.517 57.7709 109.689 57.9609C109.862 58.1449 110.066 58.2904 110.304 58.3972C110.547 58.5041 110.812 58.5575 111.097 58.5575C111.393 58.5575 111.661 58.5011 111.898 58.3883C112.136 58.2755 112.337 58.1241 112.504 57.9341C112.67 57.7442 112.798 57.5334 112.887 57.3018C112.982 57.0703 113.029 56.8328 113.029 56.5894C113.029 56.3341 112.982 56.0907 112.887 55.8591C112.792 55.6216 112.658 55.4109 112.486 55.2268C112.314 55.0428 112.109 54.8973 111.871 54.7904C111.634 54.6836 111.376 54.6301 111.097 54.6301C110.8 54.6301 110.53 54.6865 110.286 54.7993C110.049 54.9062 109.844 55.0546 109.672 55.2446C109.505 55.4346 109.378 55.6454 109.289 55.8769C109.2 56.1085 109.155 56.346 109.155 56.5894ZM120.763 59.0295V55.1556L118.857 58.139H118.536L116.622 55.1556V59.0295H116.07V54.1492H116.648L118.697 57.3909L120.745 54.1492H121.324V59.0295H120.763ZM123.549 59.0295L125.775 54.1492H126.238L128.447 59.0295H127.859L127.182 57.5601H124.822L124.154 59.0295H123.549ZM126.007 54.8439L124.956 57.0703H127.04L126.007 54.8439ZM133.989 54.6479H132.109V59.0295H131.557V54.6479H129.66V54.1492H133.989V54.6479ZM139.869 58.5308V59.0295H136.28V54.1492H139.797V54.6479H136.832V56.3133H139.423V56.7764H136.832V58.5308H139.869ZM142.347 59.0295V54.1492H144.163C144.727 54.1492 145.199 54.2591 145.579 54.4787C145.959 54.6984 146.244 54.9923 146.434 55.3604C146.624 55.7226 146.719 56.1293 146.719 56.5805C146.719 57.0733 146.612 57.5037 146.399 57.8718C146.191 58.2399 145.897 58.5249 145.517 58.7267C145.137 58.9286 144.686 59.0295 144.163 59.0295H142.347ZM146.149 56.5805C146.149 56.2005 146.072 55.868 145.918 55.583C145.763 55.2921 145.538 55.0635 145.241 54.8973C144.95 54.7311 144.591 54.6479 144.163 54.6479H142.899V58.5308H144.163C144.597 58.5308 144.962 58.4477 145.259 58.2815C145.556 58.1093 145.778 57.8748 145.927 57.5779C146.075 57.2811 146.149 56.9486 146.149 56.5805ZM154.545 52.7065H155.07L157.698 59.0295H157.038L156.219 57.0525H153.378L152.568 59.0295H151.9L154.545 52.7065ZM156.077 56.5627L154.803 53.4368L153.512 56.5627H156.077ZM159.895 59.0295V54.1492H160.447V58.5308H163.395V59.0295H159.895ZM165.64 59.0295V54.1492H167.84C168.149 54.1492 168.425 54.2264 168.668 54.3808C168.912 54.5351 169.099 54.7311 169.229 54.9686C169.366 55.2001 169.434 55.4435 169.434 55.6988C169.434 55.966 169.369 56.2183 169.238 56.4558C169.114 56.6933 168.936 56.8862 168.704 57.0347C168.478 57.1831 168.208 57.2573 167.894 57.2573H166.193V59.0295H165.64ZM166.193 56.7586H167.867C168.075 56.7586 168.253 56.7111 168.401 56.6161C168.55 56.5152 168.665 56.3846 168.749 56.2243C168.832 56.064 168.873 55.8918 168.873 55.7077C168.873 55.5059 168.826 55.3277 168.731 55.1734C168.636 55.0131 168.508 54.8854 168.348 54.7904C168.187 54.6954 168.009 54.6479 167.813 54.6479H166.193V56.7586ZM176.024 54.1492V59.0295H175.472V56.7853H172.364V59.0295H171.812V54.1492H172.364V56.2777H175.472V54.1492H176.024ZM178.256 59.0295L180.483 54.1492H180.946L183.154 59.0295H182.567L181.89 57.5601H179.53L178.862 59.0295H178.256ZM180.714 54.8439L179.663 57.0703H181.747L180.714 54.8439ZM190.469 52.7065H190.994L193.621 59.0295H192.962L192.143 57.0525H189.302L188.491 59.0295H187.824L190.469 52.7065ZM192 56.5627L190.727 53.4368L189.435 56.5627H192ZM195.819 59.0295V54.1492H196.371V58.5308H199.319V59.0295H195.819ZM203.501 59.0652C203.145 59.0652 202.815 58.9969 202.512 58.8603C202.21 58.7178 201.945 58.5279 201.72 58.2904C201.5 58.0529 201.328 57.7857 201.203 57.4889C201.085 57.192 201.025 56.8862 201.025 56.5716C201.025 56.245 201.085 55.9363 201.203 55.6454C201.328 55.3485 201.5 55.0873 201.72 54.8617C201.94 54.6301 202.198 54.4491 202.495 54.3184C202.797 54.1878 203.127 54.1225 203.483 54.1225C204 54.1225 204.421 54.2205 204.748 54.4164C205.08 54.6123 205.333 54.8676 205.505 55.1823L205.068 55.4762C204.908 55.1793 204.685 54.9626 204.4 54.8261C204.121 54.6895 203.81 54.6212 203.465 54.6212C203.174 54.6212 202.913 54.6776 202.682 54.7904C202.45 54.8973 202.251 55.0457 202.085 55.2357C201.925 55.4198 201.8 55.6305 201.711 55.868C201.628 56.0996 201.586 56.34 201.586 56.5894C201.586 56.8566 201.634 57.1089 201.729 57.3464C201.83 57.5839 201.969 57.7946 202.147 57.9787C202.325 58.1568 202.533 58.2993 202.771 58.4061C203.008 58.5071 203.264 58.5575 203.537 58.5575C203.851 58.5575 204.151 58.4863 204.436 58.3438C204.727 58.2013 205 57.9787 205.255 57.6759V58.2637C205.006 58.5308 204.733 58.7327 204.436 58.8692C204.145 58.9999 203.833 59.0652 203.501 59.0652ZM205.175 57.0436H204.009V56.6161H205.656V59.0295H205.175V57.0436ZM210.377 59.0652C210.003 59.0652 209.662 58.9969 209.353 58.8603C209.051 58.7178 208.786 58.5308 208.561 58.2993C208.341 58.0618 208.172 57.7976 208.053 57.5067C207.934 57.2098 207.875 56.9041 207.875 56.5894C207.875 56.2628 207.937 55.9541 208.062 55.6632C208.187 55.3663 208.362 55.1021 208.587 54.8706C208.813 54.639 209.077 54.458 209.38 54.3273C209.689 54.1908 210.024 54.1225 210.386 54.1225C210.754 54.1225 211.09 54.1938 211.393 54.3362C211.701 54.4787 211.966 54.6687 212.185 54.9062C212.405 55.1437 212.574 55.4109 212.693 55.7077C212.812 55.9986 212.871 56.2955 212.871 56.5983C212.871 56.9248 212.809 57.2365 212.684 57.5334C212.559 57.8302 212.384 58.0944 212.159 58.326C211.939 58.5516 211.675 58.7327 211.366 58.8692C211.063 58.9999 210.734 59.0652 210.377 59.0652ZM208.436 56.5894C208.436 56.8447 208.481 57.0911 208.57 57.3286C208.665 57.5601 208.798 57.7709 208.97 57.9609C209.143 58.1449 209.347 58.2904 209.585 58.3972C209.828 58.5041 210.092 58.5575 210.377 58.5575C210.674 58.5575 210.941 58.5011 211.179 58.3883C211.416 58.2755 211.618 58.1241 211.785 57.9341C211.951 57.7442 212.078 57.5334 212.167 57.3018C212.262 57.0703 212.31 56.8328 212.31 56.5894C212.31 56.3341 212.262 56.0907 212.167 55.8591C212.072 55.6216 211.939 55.4109 211.767 55.2268C211.595 55.0428 211.39 54.8973 211.152 54.7904C210.915 54.6836 210.656 54.6301 210.377 54.6301C210.081 54.6301 209.81 54.6865 209.567 54.7993C209.33 54.9062 209.125 55.0546 208.953 55.2446C208.786 55.4346 208.659 55.6454 208.57 55.8769C208.481 56.1085 208.436 56.346 208.436 56.5894ZM215.351 59.0295V54.1492H217.604C217.912 54.1492 218.185 54.2264 218.423 54.3808C218.666 54.5351 218.856 54.7311 218.993 54.9686C219.129 55.2001 219.198 55.4435 219.198 55.6988C219.198 55.9304 219.147 56.1471 219.046 56.3489C218.951 56.5508 218.815 56.723 218.637 56.8655C218.465 57.008 218.26 57.1029 218.022 57.1504L219.322 59.0295H218.681L217.452 57.2573H215.903V59.0295H215.351ZM215.903 56.7586H217.621C217.823 56.7586 217.998 56.7111 218.147 56.6161C218.301 56.5152 218.42 56.3846 218.503 56.2243C218.586 56.058 218.628 55.8829 218.628 55.6988C218.628 55.5088 218.58 55.3367 218.485 55.1823C218.396 55.022 218.272 54.8943 218.111 54.7993C217.951 54.6984 217.77 54.6479 217.568 54.6479H215.903V56.7586ZM221.765 59.0295V54.1581H222.318V59.0295H221.765ZM228.93 54.6479H227.051V59.0295H226.498V54.6479H224.602V54.1492H228.93V54.6479ZM235.433 54.1492V59.0295H234.881V56.7853H231.773V59.0295H231.221V54.1492H231.773V56.2777H234.881V54.1492H235.433ZM242.955 59.0295V55.1556L241.049 58.139H240.729L238.814 55.1556V59.0295H238.262V54.1492H238.841L240.889 57.3909L242.937 54.1492H243.516V59.0295H242.955Z" fill="black"/>
<rect x="89.4332" y="45.8229" width="153.623" height="0.612527" fill="black"/>
</svg>
